<svg width="339" height="94" viewBox="0 0 339 94" fill="none" xmlns="http://www.w3.org/2000/svg">
<path fill-rule="evenodd" clip-rule="evenodd" d="M125.879 55.8033H116.858C114.461 61.5155 109.254 69.4799 97.9673 76.2291C93.3885 78.9851 88.4679 81.1284 83.3314 82.6041C90.5958 76.7715 96.7195 69.6463 101.394 61.5878C102.48 59.7072 103.476 57.7768 104.378 55.8033H79.2086C76.5091 72.3651 67.168 81.0145 62.9527 84.15C58.7379 81.0149 49.3987 72.3674 46.6977 55.8033H21.5301C22.4329 57.7786 23.4295 59.7108 24.5167 61.5931C29.1912 69.6517 35.3149 76.7768 42.5792 82.6094C37.4425 81.132 32.5218 78.9869 27.9433 76.2291C16.672 69.4908 11.4638 61.5386 9.05447 55.8033H0C2.24001 62.7824 8.14666 74.2971 23.587 83.5231C40.2845 93.5003 54.9601 93.5001 62.904 93.5H62.9792C70.9055 93.5 85.6477 93.5 102.292 83.5231C117.732 74.2971 123.639 62.7824 125.879 55.8033ZM107.652 18.7106C108.656 21.8266 109.66 26.29 109.734 31.8033H78.116C74.5771 18.6645 66.822 11.4201 62.9527 8.5C59.0823 11.4128 51.3241 18.6583 47.7865 31.8033H16.1948C16.2767 26.2892 17.2809 21.8271 18.2852 18.7106C18.9321 16.6782 20.3133 14.9599 22.159 13.8912C24.0048 12.8224 26.1826 12.48 28.2673 12.9306C33.6733 14.1342 38.8136 16.3164 43.4345 19.3694C46.8268 12.4534 51.7635 6.40972 57.8633 1.70531C59.3392 0.598376 61.1343 0 62.9792 0C64.8241 0 66.6192 0.598376 68.0952 1.70531C74.1853 6.41271 79.1127 12.4561 82.4973 19.3694C87.1182 16.3164 92.2585 14.1342 97.6645 12.9306C99.7498 12.4822 101.927 12.8256 103.773 13.894C105.619 14.9623 107.002 16.6792 107.652 18.7106Z" fill="#1F1710"/>
<path d="M154.439 29.75H160.979V47.81H179.759V29.75H186.299V71.75H179.759V53.15H160.979V71.75H154.439V29.75ZM198.456 29.75H224.556V35.09H204.996V47.03H222.456V52.37H204.996V66.41H224.556V71.75H198.456V29.75ZM234.913 29.75H246.853C256.653 29.75 261.553 33.15 261.553 39.95C261.553 42.19 261.053 44.07 260.053 45.59C259.053 47.07 257.493 48.25 255.373 49.13V49.31C258.133 50.15 260.133 51.39 261.373 53.03C262.613 54.67 263.233 56.87 263.233 59.63C263.233 67.71 258.573 71.75 249.253 71.75H234.913V29.75ZM247.993 47.15C250.273 47.15 252.013 46.59 253.213 45.47C254.413 44.31 255.013 42.67 255.013 40.55C255.013 38.59 254.353 37.17 253.033 36.29C251.753 35.37 249.693 34.91 246.853 34.91H241.453V47.15H247.993ZM249.193 66.59C251.673 66.59 253.553 65.99 254.833 64.79C256.113 63.55 256.753 61.75 256.753 59.39C256.753 56.83 255.953 54.97 254.353 53.81C252.793 52.61 250.293 52.01 246.853 52.01H241.453V66.59H249.193ZM293.965 63.41H278.305L275.725 71.75H268.765L283.165 29.75H289.105L303.505 71.75H296.545L293.965 63.41ZM292.285 58.07L286.165 38.21L279.985 58.07H292.285ZM317.71 34.73H304.87V29.75H337.03V34.73H324.25V71.75H317.71V34.73Z" fill="#1F1710"/>
</svg>
